<svg width="28" height="27" viewBox="0 0 28 27" fill="none" xmlns="http://www.w3.org/2000/svg">
<path d="M25.0252 19.5317C25.6921 18.4047 26.0484 17.1424 26.0623 15.857C26.0762 14.5715 25.7474 13.3028 25.1049 12.1637C24.4625 11.0246 23.5265 10.0504 22.3801 9.32779C21.2337 8.60516 19.9125 8.1565 18.534 8.02173C18.0965 7.0443 17.4491 6.15966 16.6312 5.42167C15.8133 4.68367 14.842 4.10776 13.7764 3.72899C12.7109 3.35022 11.5734 3.17651 10.4331 3.21843C9.29286 3.26036 8.17374 3.51705 7.14387 3.97287C6.11399 4.42869 5.19491 5.0741 4.44256 5.86983C3.69022 6.66557 3.12035 7.59496 2.76765 8.60145C2.41494 9.60794 2.28678 10.6705 2.39096 11.7244C2.49514 12.7782 2.82948 13.8015 3.37364 14.7317L2.68355 16.9817C2.62135 17.1869 2.6192 17.4037 2.67732 17.6099C2.73543 17.8161 2.85173 18.0043 3.01424 18.155C3.17675 18.3057 3.37961 18.4135 3.60196 18.4674C3.82432 18.5213 4.05814 18.5194 4.27939 18.4617L6.70548 17.8217C7.68164 18.3212 8.75595 18.634 9.8648 18.7417C10.314 19.7581 10.9896 20.6751 11.8474 21.4326C12.7052 22.1901 13.7259 22.771 14.8426 23.1373C15.9593 23.5035 17.1468 23.647 18.3274 23.5581C19.5079 23.4692 20.655 23.1501 21.6934 22.6216L24.1195 23.2616C24.3411 23.3228 24.5764 23.3273 24.8005 23.2746C25.0247 23.222 25.2293 23.1142 25.3928 22.9625C25.5563 22.8109 25.6726 22.6211 25.7293 22.4133C25.7861 22.2054 25.7812 21.9872 25.7153 21.7816L25.0252 19.5317ZM6.79174 16.5717C6.72917 16.5711 6.66702 16.5813 6.60844 16.6017L3.92356 17.3117L4.68913 14.8217C4.71604 14.7437 4.72419 14.6612 4.71302 14.58C4.70184 14.4988 4.6716 14.4209 4.62443 14.3517C3.74209 12.9707 3.43358 11.3386 3.75682 9.7616C4.08006 8.18463 5.01282 6.7713 6.38 5.78692C7.74719 4.80254 9.45478 4.31479 11.1822 4.41524C12.9097 4.51569 14.5382 5.19743 15.7621 6.33248C16.986 7.46753 17.7211 8.97784 17.8294 10.5799C17.9377 12.182 17.4118 13.7656 16.3504 15.0335C15.2889 16.3015 13.765 17.1665 12.0646 17.4663C10.3642 17.7661 8.60428 17.48 7.11522 16.6617C7.01908 16.6032 6.9067 16.572 6.79174 16.5717V16.5717ZM23.7097 19.6217L24.4753 22.1116L21.7904 21.4016C21.7063 21.3767 21.6174 21.3691 21.5298 21.3795C21.4423 21.3899 21.3582 21.4179 21.2836 21.4616C20.4446 21.9218 19.5126 22.2175 18.5454 22.3304C17.5782 22.4432 16.5964 22.3709 15.6605 22.1178C14.7247 21.8648 13.8547 21.4364 13.1045 20.8591C12.3543 20.2818 11.7398 19.568 11.2989 18.7617C13.4282 18.6299 15.4241 17.7533 16.8833 16.3091C18.3425 14.8649 19.156 12.9608 19.1594 10.9817C19.157 10.4132 19.0883 9.84656 18.9546 9.29172C20.0802 9.48779 21.1382 9.93253 22.0392 10.5883C22.9401 11.244 23.6574 12.0915 24.1303 13.0588C24.6032 14.0262 24.8177 15.085 24.7558 16.1456C24.6938 17.2062 24.3572 18.2373 23.7744 19.1517C23.7272 19.2209 23.697 19.2988 23.6858 19.38C23.6747 19.4612 23.6828 19.5437 23.7097 19.6217V19.6217Z" fill="#0D0D0D" fill-opacity="0.75"/>
</svg>
