<svg width="28" height="27" viewBox="0 0 28 27" fill="none" xmlns="http://www.w3.org/2000/svg">
<path d="M13.1423 24.0483C13.8029 24.0492 14.4473 23.8442 14.986 23.4619C15.5247 23.0795 15.9309 22.5389 16.1482 21.915H10.1365C10.3537 22.5389 10.7599 23.0795 11.2986 23.4619C11.8373 23.8442 12.4817 24.0492 13.1423 24.0483ZM20.6089 16.1401V11.2484C20.6089 7.81698 18.2783 4.92633 15.121 4.05701C14.8085 3.26981 14.0447 2.71515 13.1423 2.71515C12.2399 2.71515 11.4762 3.26981 11.1637 4.05701C8.00636 4.9274 5.67571 7.81698 5.67571 11.2484V16.1401L3.85492 17.9609C3.75568 18.0598 3.67697 18.1773 3.62333 18.3068C3.5697 18.4362 3.54219 18.5749 3.54239 18.715V19.7817C3.54239 20.0646 3.65477 20.3359 3.85481 20.5359C4.05484 20.736 4.32615 20.8484 4.60905 20.8484H21.6756C21.9585 20.8484 22.2298 20.736 22.4299 20.5359C22.6299 20.3359 22.7423 20.0646 22.7423 19.7817V18.715C22.7425 18.5749 22.715 18.4362 22.6613 18.3068C22.6077 18.1773 22.529 18.0598 22.4297 17.9609L20.6089 16.1401Z" fill="#0D0D0D" fill-opacity="0.75"/>
<circle cx="19.1814" cy="5.79123" r="2.80496" fill="#F9A135"/>
</svg>
