<svg width="39" height="36" viewBox="0 0 39 36" fill="none" xmlns="http://www.w3.org/2000/svg">
<path d="M12.6264 17.9683L17.1073 17.9685C17.5005 17.9685 17.8934 17.6039 17.8934 17.2395L17.8935 12.5736C17.8936 10.3136 19.859 8.41802 22.2175 8.41809C22.6106 8.4181 23.0035 8.12646 23.0035 7.68913L23.0037 3.97063C23.0037 3.53327 22.6105 3.24162 22.2177 3.24161L21.5103 3.24159C16.2431 3.24143 11.8409 7.3242 11.8407 12.3545L11.8405 17.2391C11.8405 17.6037 12.2337 17.9683 12.6266 17.9683L12.6264 17.9683Z" fill="#3E36B0"/>
<path d="M12.4698 1.12705C12.4698 0.762424 12.1553 0.398057 11.6837 0.398042L7.51711 0.397918C7.28132 0.397911 7.04552 0.470881 6.88842 0.616576C6.80972 0.762528 6.73103 0.908225 6.73102 1.1269L6.73081 7.32379C5.63021 8.19869 5.0012 9.58374 5.00115 11.042L5.00114 11.1877C6.3375 10.5317 8.06704 10.0212 10.111 9.65682C10.3468 9.65683 10.5826 9.58386 10.74 9.58386C11.1332 8.27158 11.6835 7.10524 12.5483 6.08433L12.5482 1.12702L12.4698 1.12705Z" fill="#3E36B0"/>
<path d="M7.12311 31.8202L7.12319 29.5599C7.12319 29.3413 7.20189 29.1226 7.43769 28.9766L9.08858 27.8101L8.14539 21.4672C8.06671 21.0299 8.38121 20.6653 8.77437 20.6653C9.16755 20.5923 9.6391 20.884 9.63908 21.3213L10.6607 28.0286C10.7394 28.3203 10.582 28.539 10.3462 28.6847L8.69533 29.9247L8.69522 33.0596C10.6605 34.5177 12.7828 35.3927 14.6697 35.3928C15.0629 35.3928 15.3771 35.3928 15.6916 35.3199C16.635 35.1742 17.4211 34.8096 18.2859 34.3722L16.7923 31.1643C16.7136 31.0913 16.7136 30.9456 16.7136 30.8726L16.7137 27.6647L14.1986 23.8007C13.9628 23.4361 14.1199 22.9988 14.4344 22.7801C14.8276 22.5614 15.2991 22.7071 15.535 22.9988L18.1291 26.9357C18.2078 27.0814 18.2862 27.1544 18.2862 27.3004L18.2861 30.581L19.5439 33.3514C22.8456 30.5081 24.654 25.1132 23.5536 19.9369C23.0035 17.0936 21.5885 14.7605 19.5446 13.2295L19.5445 17.2394C19.5444 18.406 18.4438 19.4267 17.1859 19.4266L12.6263 19.4262C11.3684 19.4262 10.2679 18.4055 10.2679 17.2389L10.2681 12.3543C10.2681 11.9169 10.2681 11.4793 10.3468 11.1149L10.2684 11.1149C3.03606 12.427 -0.108536 16.0722 1.07044 21.9047C1.77796 25.477 4.21473 29.1953 7.12335 31.82L7.12311 31.8202Z" fill="#3E36B0"/>
<path d="M37.7821 22.1976L36.21 22.1976L34.4806 16.0006C34.402 15.636 34.0875 15.4173 33.6946 15.4173C33.3014 15.4173 32.9872 15.7089 32.9872 16.0006L31.4148 24.2388L30.4715 21.1768C30.3929 20.8852 30.1571 20.6665 29.8426 20.6665C29.5281 20.5935 29.2136 20.7395 29.0565 21.0311L27.4056 23.5097L25.9121 18.9167C25.8334 18.625 25.5189 18.4064 25.2047 18.4063C25.0476 18.4063 24.8902 18.4063 24.8116 18.4793C24.9686 18.9167 25.0473 19.2813 25.126 19.7186C25.2831 20.6664 25.4404 21.6143 25.4404 22.562L26.4622 25.5512C26.5408 25.8429 26.7766 26.0616 27.0911 26.0616C27.4056 26.1346 27.7201 25.9886 27.8772 25.697L29.4493 23.2184L30.8642 27.7386C30.9429 28.0303 31.2573 28.249 31.6502 28.249L31.7289 28.249C32.1221 28.249 32.4363 27.9573 32.4363 27.6657L33.9303 19.6461L34.952 23.1458C35.0307 23.4374 35.3452 23.7291 35.7381 23.7291L37.782 23.7289C38.2536 23.7289 38.5681 23.4373 38.5681 22.9999C38.5681 22.4893 38.2537 22.1977 37.7821 22.1977L37.7821 22.1976Z" fill="#3E36B0"/>
</svg>
